<?xml version="1.0" encoding="UTF-8" standalone="no"?>
<!-- Created with Inkscape (http://www.inkscape.org/) -->

<svg
   width="241mm"
   height="241mm"
   viewBox="0 0 241 241"
   version="1.1"
   id="svg4491"
   inkscape:version="1.2 (dc2aedaf03, 2022-05-15)"
   sodipodi:docname="VA_ImageButton.svg"
   inkscape:export-filename="..\..\..\..\..\..\Users\David\Desktop\VA_Imagebutton.png"
   inkscape:export-xdpi="25.4"
   inkscape:export-ydpi="25.4"
   xml:space="preserve"
   xmlns:inkscape="http://www.inkscape.org/namespaces/inkscape"
   xmlns:sodipodi="http://sodipodi.sourceforge.net/DTD/sodipodi-0.dtd"
   xmlns="http://www.w3.org/2000/svg"
   xmlns:svg="http://www.w3.org/2000/svg"
   xmlns:rdf="http://www.w3.org/1999/02/22-rdf-syntax-ns#"
   xmlns:cc="http://creativecommons.org/ns#"
   xmlns:dc="http://purl.org/dc/elements/1.1/"><defs
     id="defs4485" /><sodipodi:namedview
     id="base"
     pagecolor="#ffffff"
     bordercolor="#666666"
     borderopacity="1.0"
     inkscape:pageopacity="0.0"
     inkscape:pageshadow="2"
     inkscape:zoom="0.24748737"
     inkscape:cx="-1810.1934"
     inkscape:cy="664.68038"
     inkscape:document-units="mm"
     inkscape:current-layer="layer1"
     showgrid="false"
     inkscape:window-width="1978"
     inkscape:window-height="1230"
     inkscape:window-x="31"
     inkscape:window-y="510"
     inkscape:window-maximized="0"
     inkscape:pagecheckerboard="true"
     inkscape:showpageshadow="2"
     inkscape:deskcolor="#d1d1d1" /><metadata
     id="metadata4488"><rdf:RDF><cc:Work
         rdf:about=""><dc:format>image/svg+xml</dc:format><dc:type
           rdf:resource="http://purl.org/dc/dcmitype/StillImage" /></cc:Work></rdf:RDF></metadata><g
     inkscape:label="Ebene 1"
     inkscape:groupmode="layer"
     id="layer1"
     transform="translate(0,-56)"><ellipse
       style="opacity:1;fill:none;fill-opacity:1;stroke:#ffffff;stroke-width:16.75791359;stroke-miterlimit:4;stroke-dasharray:none;stroke-dashoffset:0;stroke-opacity:1"
       id="path5044"
       cx="120.5744"
       cy="178.69345"
       rx="101.02878"
       ry="101.02875" /><path
       d="M 163.44698,218.26813 H 77.701821 c -5.464188,0 -9.89367,-4.42947 -9.89367,-9.89367 v -59.36202 c 0,-5.46419 4.429482,-9.89367 9.89367,-9.89367 h 85.745159 c 5.46419,0 9.89367,4.42948 9.89367,9.89367 v 59.36202 c 0,5.4642 -4.42948,9.89367 -9.89367,9.89367 z M 90.893355,150.66139 c -6.374795,0 -11.542563,5.16779 -11.542563,11.54262 0,6.37481 5.167768,11.54261 11.542563,11.54261 6.374873,0 11.542645,-5.1678 11.542645,-11.54261 0,-6.37483 -5.167772,-11.54262 -11.542645,-11.54262 z m -9.89367,54.41518 h 79.149395 v -23.08522 l -18.03843,-18.03843 c -0.96587,-0.96587 -2.53195,-0.96587 -3.49802,0 l -27.93193,27.9321 -11.442619,-11.44266 c -0.96584,-0.96586 -2.531922,-0.96586 -3.497996,0 l -14.7404,14.74054 z"
       id="path176"
       style="fill:#ffffff;stroke-width:0.206118" /></g></svg>
