<?xml version="1.0" encoding="UTF-8" standalone="no"?>
<!-- Created with Inkscape (http://www.inkscape.org/) -->

<svg
   xmlns:dc="http://purl.org/dc/elements/1.1/"
   xmlns:cc="http://creativecommons.org/ns#"
   xmlns:rdf="http://www.w3.org/1999/02/22-rdf-syntax-ns#"
   xmlns:svg="http://www.w3.org/2000/svg"
   xmlns="http://www.w3.org/2000/svg"
   xmlns:sodipodi="http://sodipodi.sourceforge.net/DTD/sodipodi-0.dtd"
   xmlns:inkscape="http://www.inkscape.org/namespaces/inkscape"
   width="16.947287mm"
   height="10.828129mm"
   viewBox="0 0 16.947287 10.828129"
   version="1.1"
   id="svg4666"
   inkscape:version="0.92.1 r15371"
   sodipodi:docname="VA_Version.svg">
  <defs
     id="defs4660" />
  <sodipodi:namedview
     id="base"
     pagecolor="#ffffff"
     bordercolor="#666666"
     borderopacity="1.0"
     inkscape:pageopacity="0.0"
     inkscape:pageshadow="2"
     inkscape:zoom="8.4862118"
     inkscape:cx="-50.660488"
     inkscape:cy="22.6717"
     inkscape:document-units="mm"
     inkscape:current-layer="layer1"
     showgrid="false"
     fit-margin-top="0"
     fit-margin-left="0"
     fit-margin-right="0"
     fit-margin-bottom="0"
     inkscape:pagecheckerboard="true"
     inkscape:window-width="2560"
     inkscape:window-height="1377"
     inkscape:window-x="-8"
     inkscape:window-y="-8"
     inkscape:window-maximized="1"
     showguides="true"
     inkscape:guide-bbox="true">
    <sodipodi:guide
       position="-3.1627408,1.4965442"
       orientation="0,1"
       id="guide70"
       inkscape:locked="false" />
    <sodipodi:guide
       position="5.0059031,9.1039832"
       orientation="0,1"
       id="guide72"
       inkscape:locked="false" />
  </sodipodi:namedview>
  <metadata
     id="metadata4663">
    <rdf:RDF>
      <cc:Work
         rdf:about="">
        <dc:format>image/svg+xml</dc:format>
        <dc:type
           rdf:resource="http://purl.org/dc/dcmitype/StillImage" />
        <dc:title></dc:title>
      </cc:Work>
    </rdf:RDF>
  </metadata>
  <g
     inkscape:label="Ebene 1"
     inkscape:groupmode="layer"
     id="layer1"
     transform="translate(-68.343423,-49.74353)">
    <g
       id="g4591"
       transform="translate(-208.59288,5.4368969)">
      <g
         id="g4611"
         transform="translate(18.167404,41.132496)">
        <g
           aria-label="/"
           transform="matrix(0.22328539,0,0,0.26458333,195.88244,-82.268279)"
           style="font-style:normal;font-weight:normal;font-size:40px;line-height:1.25;font-family:sans-serif;letter-spacing:0px;word-spacing:0px;display:inline;fill:#000000;fill-opacity:1;stroke:none"
           id="flowRoot4777">
          <path
             inkscape:connector-curvature="0"
             d="m 345.09102,323.82634 -18.75097,40.03084 -2.28219,-0.77101 18.75097,-40.1542 z"
             style="font-style:normal;font-variant:normal;font-weight:normal;font-stretch:normal;font-family:Kabel;-inkscape-font-specification:Kabel;fill:#ffffff;fill-opacity:1"
             id="path4641" />
        </g>
        <g
           id="g4752"
           transform="translate(-4.4555994,-2.377545)">
          <g
             id="flowRoot4737"
             style="font-style:normal;font-variant:normal;font-weight:normal;font-stretch:normal;font-size:39.17893219px;line-height:1.25;font-family:Kabel;-inkscape-font-specification:'Kabel, Normal';font-variant-ligatures:normal;font-variant-caps:normal;font-variant-numeric:normal;font-feature-settings:normal;text-align:start;letter-spacing:0px;word-spacing:0px;writing-mode:lr-tb;text-anchor:start;display:inline;fill:#000000;fill-opacity:1;stroke:none"
             transform="matrix(0.20021203,0,0,0.23450186,168.91361,-69.295563)"
             aria-label="1" />
          <g
             id="flowRoot4737-2"
             style="font-style:normal;font-variant:normal;font-weight:normal;font-stretch:normal;font-size:39.17893219px;line-height:1.25;font-family:Kabel;-inkscape-font-specification:'Kabel, Normal';font-variant-ligatures:normal;font-variant-caps:normal;font-variant-numeric:normal;font-feature-settings:normal;text-align:start;letter-spacing:0px;word-spacing:0px;writing-mode:lr-tb;text-anchor:start;display:inline;fill:#000000;fill-opacity:1;stroke:none"
             transform="matrix(0.20021203,0,0,0.23450186,172.32954,-69.375925)"
             aria-label="8" />
        </g>
        <g
           aria-label="1"
           transform="matrix(0.1763101,0,0,0.23450186,151.13219,-72.100519)"
           style="font-style:normal;font-variant:normal;font-weight:normal;font-stretch:normal;font-size:41.75025177px;line-height:1.25;font-family:Kabel;-inkscape-font-specification:'Kabel, Normal';font-variant-ligatures:normal;font-variant-caps:normal;font-variant-numeric:normal;font-feature-settings:normal;text-align:start;letter-spacing:0px;word-spacing:0px;writing-mode:lr-tb;text-anchor:start;display:inline;fill:#000000;fill-opacity:1;stroke:none"
           id="flowRoot4795" />
      </g>
    </g>
    <flowRoot
       xml:space="preserve"
       id="flowRoot18"
       style="font-style:normal;font-weight:normal;font-size:40px;line-height:1.25;font-family:sans-serif;letter-spacing:0px;word-spacing:0px;fill:#000000;fill-opacity:1;stroke:none"
       transform="matrix(0.26458333,0,0,0.26458333,67.550212,49.681174)"><flowRegion
         id="flowRegion20"><rect
           id="rect22"
           width="87.318115"
           height="41.47905"
           x="-8.3665133"
           y="-36.730167" /></flowRegion><flowPara
         id="flowPara24">22</flowPara></flowRoot>    <g
       aria-label="20"
       transform="matrix(0.19118114,0,0,0.23525394,68.401066,49.961202)"
       style="font-style:normal;font-weight:normal;font-size:40px;line-height:1.25;font-family:sans-serif;letter-spacing:0px;word-spacing:0px;fill:#000000;fill-opacity:1;stroke:none"
       id="flowRoot832">
      <path
         d="m 20.515761,35.780334 -0.74017,2.960678 H -0.23982929 L 10.708513,27.607627 q 2.127988,-2.158828 3.145721,-3.330763 1.696222,-1.973786 2.498072,-3.546646 1.017734,-1.973786 1.017734,-3.85505 0,-2.898998 -2.066307,-5.026986 -2.035467,-2.1588276 -4.934464,-2.1588276 -2.9298385,0 -5.1195069,1.9737856 -2.1588281,1.942945 -2.1588281,4.811103 0,3.238242 2.2513493,5.242868 2.5289128,2.251349 5.0269857,2.251349 L 7.9945578,26.374011 Q 7.0385053,26.065607 6.4833781,25.880565 4.7563157,25.263757 3.9853056,24.677789 2.6900088,23.690896 1.6105948,21.994674 -0.05478689,19.3424 -0.05478689,16.350881 q 0,-4.225135 3.26908249,-7.000771 3.0223593,-2.5597533 7.0932924,-2.5597533 4.194294,0 7.062452,2.5289129 3.08404,2.7139554 3.08404,7.0624514 0,2.343871 -1.110255,4.749422 -0.894371,1.973786 -2.744795,4.255975 -1.418659,1.757903 -3.299923,3.577487 l -7.1241329,6.815729 z"
         style="font-style:normal;font-variant:normal;font-weight:normal;font-stretch:normal;font-family:Kabel;-inkscape-font-specification:Kabel;fill:#ffffff;fill-opacity:1"
         id="path4504" />
      <path
         d="m 48.270856,23.875939 q 0,6.013878 -2.713955,10.393215 -3.269082,5.273708 -9.22128,5.273708 -5.952197,0 -9.190439,-5.181187 -2.775636,-4.441018 -2.775636,-10.824981 0,-6.96993 2.590593,-11.441788 3.114881,-5.3662301 9.159599,-5.3662301 6.13724,0 9.282961,4.9344641 2.868157,4.471858 2.868157,12.212799 z m -3.207401,0.154202 q 0,-5.952198 -2.004626,-9.99229 -2.374711,-4.7494218 -6.754048,-4.7494218 -4.379337,0 -6.754048,4.7185818 -2.004626,3.978411 -2.004626,9.591364 0,5.33539 1.973786,8.943716 2.34387,4.317657 6.784888,4.317657 4.317656,0 6.723207,-4.163455 2.035467,-3.546646 2.035467,-8.666152 z"
         style="font-style:normal;font-variant:normal;font-weight:normal;font-stretch:normal;font-family:Kabel;-inkscape-font-specification:Kabel;fill:#ffffff;fill-opacity:1"
         id="path4506" />
    </g>
    <g
       aria-label="1"
       transform="matrix(0.19118114,0,0,0.23525394,82.459714,49.992445)"
       style="font-style:normal;font-weight:normal;font-size:40px;line-height:1.25;font-family:sans-serif;letter-spacing:0px;word-spacing:0px;fill:#000000;fill-opacity:1;stroke:none"
       id="flowRoot832-9">
      <path
         d="M 11.787927,6.3585911 11.757087,38.741012 8.7655678,39.32698 8.7964082,11.601459 0.68538273,16.381721 -0.3015101,14.130372 Z"
         style="font-style:normal;font-variant:normal;font-weight:normal;font-stretch:normal;font-family:Kabel;-inkscape-font-specification:Kabel;fill:#ffffff;fill-opacity:1"
         id="path4509" />
    </g>
  </g>
</svg>
