<?xml version="1.0" encoding="UTF-8" standalone="no"?>
<!-- Created with Inkscape (http://www.inkscape.org/) -->

<svg
   width="18.555893mm"
   height="10.828129mm"
   viewBox="0 0 18.555893 10.828129"
   version="1.1"
   id="svg4666"
   inkscape:version="1.1 (c68e22c387, 2021-05-23)"
   sodipodi:docname="VA_Version.svg"
   xmlns:inkscape="http://www.inkscape.org/namespaces/inkscape"
   xmlns:sodipodi="http://sodipodi.sourceforge.net/DTD/sodipodi-0.dtd"
   xmlns="http://www.w3.org/2000/svg"
   xmlns:svg="http://www.w3.org/2000/svg"
   xmlns:rdf="http://www.w3.org/1999/02/22-rdf-syntax-ns#"
   xmlns:cc="http://creativecommons.org/ns#"
   xmlns:dc="http://purl.org/dc/elements/1.1/">
  <defs
     id="defs4660" />
  <sodipodi:namedview
     id="base"
     pagecolor="#ffffff"
     bordercolor="#666666"
     borderopacity="1.0"
     inkscape:pageopacity="0.0"
     inkscape:pageshadow="2"
     inkscape:zoom="8.4862118"
     inkscape:cx="19.973576"
     inkscape:cy="22.683855"
     inkscape:document-units="mm"
     inkscape:current-layer="layer1"
     showgrid="false"
     fit-margin-top="0"
     fit-margin-left="0"
     fit-margin-right="0"
     fit-margin-bottom="0"
     inkscape:pagecheckerboard="true"
     inkscape:window-width="2560"
     inkscape:window-height="1377"
     inkscape:window-x="-8"
     inkscape:window-y="-8"
     inkscape:window-maximized="1"
     showguides="true"
     inkscape:guide-bbox="true">
    <sodipodi:guide
       position="-3.1745327,1.4965431"
       orientation="0,1"
       id="guide70"
       inkscape:locked="false" />
    <sodipodi:guide
       position="4.9941114,9.1039823"
       orientation="0,1"
       id="guide72"
       inkscape:locked="false" />
  </sodipodi:namedview>
  <metadata
     id="metadata4663">
    <rdf:RDF>
      <cc:Work
         rdf:about="">
        <dc:format>image/svg+xml</dc:format>
        <dc:type
           rdf:resource="http://purl.org/dc/dcmitype/StillImage" />
      </cc:Work>
    </rdf:RDF>
  </metadata>
  <g
     inkscape:label="Ebene 1"
     inkscape:groupmode="layer"
     id="layer1"
     transform="translate(-68.355215,-49.74353)">
    <g
       id="g4591"
       transform="translate(-209.21644,5.4368969)">
      <g
         id="g4611"
         transform="translate(18.167404,41.132496)">
        <g
           aria-label="/"
           transform="matrix(0.22328539,0,0,0.26458333,195.88244,-82.268279)"
           style="font-style:normal;font-weight:normal;font-size:40px;line-height:1.25;font-family:sans-serif;letter-spacing:0px;word-spacing:0px;display:inline;fill:#000000;fill-opacity:1;stroke:none"
           id="flowRoot4777">
          <path
             inkscape:connector-curvature="0"
             d="m 345.09102,323.82634 -18.75097,40.03084 -2.28219,-0.77101 18.75097,-40.1542 z"
             style="font-style:normal;font-variant:normal;font-weight:normal;font-stretch:normal;font-family:Kabel;-inkscape-font-specification:Kabel;fill:#ffffff;fill-opacity:1"
             id="path4641" />
        </g>
        <g
           id="g4752"
           transform="translate(-4.4555994,-2.377545)">
          <g
             id="flowRoot4737"
             style="font-style:normal;font-variant:normal;font-weight:normal;font-stretch:normal;font-size:39.1789px;line-height:1.25;font-family:Kabel;-inkscape-font-specification:'Kabel, Normal';font-variant-ligatures:normal;font-variant-caps:normal;font-variant-numeric:normal;font-feature-settings:normal;text-align:start;letter-spacing:0px;word-spacing:0px;writing-mode:lr-tb;text-anchor:start;display:inline;fill:#000000;fill-opacity:1;stroke:none"
             transform="matrix(0.20021203,0,0,0.23450186,168.91361,-69.295563)"
             aria-label="1" />
          <g
             id="flowRoot4737-2"
             style="font-style:normal;font-variant:normal;font-weight:normal;font-stretch:normal;font-size:39.1789px;line-height:1.25;font-family:Kabel;-inkscape-font-specification:'Kabel, Normal';font-variant-ligatures:normal;font-variant-caps:normal;font-variant-numeric:normal;font-feature-settings:normal;text-align:start;letter-spacing:0px;word-spacing:0px;writing-mode:lr-tb;text-anchor:start;display:inline;fill:#000000;fill-opacity:1;stroke:none"
             transform="matrix(0.20021203,0,0,0.23450186,172.32954,-69.375925)"
             aria-label="8" />
        </g>
        <g
           aria-label="1"
           transform="matrix(0.1763101,0,0,0.23450186,151.13219,-72.100519)"
           style="font-style:normal;font-variant:normal;font-weight:normal;font-stretch:normal;font-size:41.7503px;line-height:1.25;font-family:Kabel;-inkscape-font-specification:'Kabel, Normal';font-variant-ligatures:normal;font-variant-caps:normal;font-variant-numeric:normal;font-feature-settings:normal;text-align:start;letter-spacing:0px;word-spacing:0px;writing-mode:lr-tb;text-anchor:start;display:inline;fill:#000000;fill-opacity:1;stroke:none"
           id="flowRoot4795" />
      </g>
    </g>
    <flowRoot
       xml:space="preserve"
       id="flowRoot18"
       style="font-style:normal;font-weight:normal;font-size:40px;line-height:1.25;font-family:sans-serif;letter-spacing:0px;word-spacing:0px;fill:#000000;fill-opacity:1;stroke:none"
       transform="matrix(0.26458333,0,0,0.26458333,67.550212,49.681174)"><flowRegion
         id="flowRegion20"><rect
           id="rect22"
           width="87.318115"
           height="41.47905"
           x="-8.3665133"
           y="-36.730167" /></flowRegion><flowPara
         id="flowPara24">22</flowPara></flowRoot>
    <g
       aria-label="21"
       transform="matrix(0.19118114,0,0,0.23525394,68.401066,49.961202)"
       id="flowRoot832"
       style="font-size:40px;line-height:1.25;letter-spacing:0px;word-spacing:0px">
      <path
         d="m 20.515761,35.780334 -0.74017,2.960678 H -0.23982929 L 10.708513,27.607627 q 2.127988,-2.158828 3.145721,-3.330763 1.696222,-1.973786 2.498072,-3.546646 1.017734,-1.973786 1.017734,-3.85505 0,-2.898998 -2.066307,-5.026986 -2.035467,-2.1588276 -4.934464,-2.1588276 -2.9298385,0 -5.1195069,1.9737856 -2.1588281,1.942945 -2.1588281,4.811103 0,3.238242 2.2513493,5.242868 2.5289128,2.251349 5.0269857,2.251349 L 7.9945578,26.374011 Q 7.0385053,26.065607 6.4833781,25.880565 4.7563157,25.263757 3.9853056,24.677789 2.6900088,23.690896 1.6105948,21.994674 -0.05478689,19.3424 -0.05478689,16.350881 q 0,-4.225135 3.26908249,-7.000771 3.0223593,-2.5597533 7.0932924,-2.5597533 4.194294,0 7.062452,2.5289129 3.08404,2.7139554 3.08404,7.0624514 0,2.343871 -1.110255,4.749422 -0.894371,1.973786 -2.744795,4.255975 -1.418659,1.757903 -3.299923,3.577487 l -7.1241329,6.815729 z"
         style="font-family:Kabel;-inkscape-font-specification:Kabel;fill:#ffffff"
         id="path5111" />
      <path
         d="m 36.3677,6.3585911 -0.03084,32.3824209 -2.991519,0.585968 0.03084,-27.725521 -8.111025,4.780262 -0.986893,-2.251349 z"
         style="font-family:Kabel;-inkscape-font-specification:Kabel;fill:#ffffff"
         id="path5113" />
    </g>
    <g
       aria-label="2"
       transform="matrix(0.19118114,0,0,0.23525394,83.425374,49.992445)"
       id="flowRoot832-9"
       style="font-size:40px;line-height:1.25;letter-spacing:0px;word-spacing:0px">
      <path
         d="m 20.515761,35.780334 -0.74017,2.960678 H -0.23982929 L 10.708513,27.607627 q 2.127988,-2.158828 3.145721,-3.330763 1.696222,-1.973786 2.498072,-3.546646 1.017734,-1.973786 1.017734,-3.85505 0,-2.898998 -2.066307,-5.026986 -2.035467,-2.1588276 -4.934464,-2.1588276 -2.9298385,0 -5.1195069,1.9737856 -2.1588281,1.942945 -2.1588281,4.811103 0,3.238242 2.2513493,5.242868 2.5289128,2.251349 5.0269857,2.251349 L 7.9945578,26.374011 Q 7.0385053,26.065607 6.4833781,25.880565 4.7563157,25.263757 3.9853056,24.677789 2.6900088,23.690896 1.6105948,21.994674 -0.05478689,19.3424 -0.05478689,16.350881 q 0,-4.225135 3.26908249,-7.000771 3.0223593,-2.5597533 7.0932924,-2.5597533 4.194294,0 7.062452,2.5289129 3.08404,2.7139554 3.08404,7.0624514 0,2.343871 -1.110255,4.749422 -0.894371,1.973786 -2.744795,4.255975 -1.418659,1.757903 -3.299923,3.577487 l -7.1241329,6.815729 z"
         style="font-family:Kabel;-inkscape-font-specification:Kabel;fill:#ffffff"
         id="path5116" />
    </g>
  </g>
</svg>
